<svg width="128" height="128" viewBox="0 0 128 128" fill="none" xmlns="http://www.w3.org/2000/svg">
<path d="M10.3226 105.29V123.871C10.3226 126.151 12.1713 128 14.4517 128H123.871C126.151 128 128 126.151 128 123.871V14.4516C128 12.1712 126.151 10.3226 123.871 10.3226H105.29C103.01 10.3226 101.161 12.1712 101.161 14.4516V33.0322H82.5807C80.3003 33.0322 78.4517 34.8809 78.4517 37.1613V55.7419H59.871C57.5906 55.7419 55.742 57.5906 55.742 59.871V78.4516H37.1613C34.8809 78.4516 33.0323 80.3002 33.0323 82.5806V101.161H14.4517C12.1713 101.161 10.3226 103.01 10.3226 105.29Z" fill="#fff"/>
<path d="M2.18975 85.4003C0.980385 84.1909 0.980385 82.2301 2.18975 81.0208L81.0207 2.18976C82.2301 0.980398 84.1909 0.980397 85.4002 2.18976C86.6096 3.39913 86.6096 5.3599 85.4002 6.56926L6.56925 85.4003C5.35989 86.6096 3.39912 86.6096 2.18975 85.4003Z" fill="#fff"/>
</svg>
