<?xml version="1.0" standalone="no"?>
<!DOCTYPE svg PUBLIC "-//W3C//DTD SVG 20010904//EN"
 "http://www.w3.org/TR/2001/REC-SVG-20010904/DTD/svg10.dtd">
<svg version="1.0" xmlns="http://www.w3.org/2000/svg"
 width="500.000000pt" height="500.000000pt" viewBox="0 0 500.000000 500.000000"
 preserveAspectRatio="xMidYMid meet">
<metadata>
Created by potrace 1.14, written by Peter Selinger 2001-2017
</metadata>
<g transform="translate(0.000000,500.000000) scale(0.100000,-0.100000)"
fill="#000000" stroke="none">
<path d="M0 2500 l0 -2500 2500 0 2500 0 0 2500 0 2500 -2500 0 -2500 0 0
-2500z m3380 739 c80 -9 164 -26 253 -50 l39 -10 -7 -62 c-4 -34 -9 -65 -11
-69 -2 -3 -50 18 -107 47 -56 30 -145 69 -197 87 -91 32 -101 33 -240 32 -127
0 -152 -3 -203 -23 -100 -39 -157 -105 -157 -181 0 -82 82 -156 284 -256 l149
-74 -206 0 -205 0 -49 36 c-89 67 -123 125 -123 212 0 63 31 141 73 180 45 42
139 90 218 112 142 38 281 43 489 19z m-1415 -34 c216 -46 364 -188 425 -407
34 -123 37 -119 -77 -116 l-98 3 -7 59 c-26 207 -129 354 -291 416 -55 21 -82
24 -249 28 l-188 4 0 -256 0 -256 -100 0 -100 0 0 270 0 270 308 0 c232 0 324
-4 377 -15z m-651 -626 c19 -15 26 -30 26 -54 0 -47 -37 -75 -101 -75 l-49 0
0 75 0 75 49 0 c34 0 56 -6 75 -21z m169 14 c-62 -4 -63 -4 -63 -33 0 -29 1
-30 53 -32 l52 -2 -52 -3 c-51 -4 -53 -5 -53 -33 0 -29 1 -29 63 -33 l62 -3
-67 -2 -68 -2 0 75 0 75 68 -2 67 -2 -62 -3z m188 -123 c4 0 22 29 40 65 19
36 37 65 40 65 4 0 -11 -34 -33 -75 -22 -41 -42 -75 -46 -75 -9 0 -82 132 -82
146 0 5 17 -21 38 -58 20 -37 40 -68 43 -68z m212 123 c-62 -4 -63 -4 -63 -33
0 -30 1 -30 58 -32 l57 -2 -57 -3 c-56 -4 -58 -5 -58 -33 0 -29 0 -29 68 -33
l67 -3 -72 -2 -73 -2 0 75 0 75 68 -2 67 -2 -62 -3z m200 0 c-62 -4 -63 -4
-63 -33 0 -30 1 -30 58 -32 l57 -2 -57 -3 c-56 -4 -58 -5 -58 -33 0 -29 1 -29
63 -33 l62 -3 -67 -2 -68 -2 0 75 0 75 68 -2 67 -2 -62 -3z m230 0 c3 -5 -14
-7 -36 -5 -79 5 -93 -42 -17 -54 23 -4 50 -14 61 -23 18 -15 18 -18 4 -38 -12
-18 -26 -23 -58 -23 -23 0 -47 4 -54 8 -6 4 14 7 45 7 51 0 57 2 60 22 3 17
-3 24 -25 29 -71 15 -93 26 -93 44 0 11 8 24 18 29 20 12 89 14 95 4z m162
-63 l64 0 4 38 c2 20 4 1 4 -43 0 -44 -2 -63 -4 -42 l-4 37 -64 0 -64 0 -4
-37 c-2 -21 -4 -2 -4 42 0 44 2 63 4 43 l4 -38 64 0z m343 61 c8 -5 -6 -6 -35
-4 -36 4 -52 1 -62 -10 -18 -22 -7 -35 37 -43 40 -7 82 -29 82 -44 0 -32 -91
-55 -128 -31 -7 4 11 6 40 3 42 -3 57 0 67 12 19 22 6 34 -54 49 -58 15 -80
41 -51 63 22 15 83 19 104 5z m157 -61 l64 0 4 38 c2 20 4 1 4 -43 0 -44 -2
-63 -4 -42 l-4 37 -64 0 -64 0 -4 -37 c-2 -21 -4 -2 -4 42 0 44 2 63 4 43 l4
-38 64 0z m218 63 c-62 -4 -63 -4 -63 -33 0 -29 1 -30 53 -32 l52 -2 -52 -3
c-51 -4 -53 -5 -53 -33 0 -29 1 -29 63 -33 l62 -3 -67 -2 -68 -2 0 75 0 75 68
-2 67 -2 -62 -3z m225 0 l-38 -4 -2 -72 -2 -72 -3 72 -4 72 -37 4 c-20 2 -1 4
43 4 44 0 63 -2 43 -4z m180 0 l-38 -4 -2 -72 -2 -72 -3 72 -4 72 -32 4 c-18
2 2 4 43 4 41 0 58 -2 38 -4z m118 -33 c16 -22 31 -40 34 -40 3 0 18 18 34 40
17 22 34 40 38 40 5 0 -10 -23 -32 -52 -31 -38 -40 -57 -35 -75 3 -13 1 -23
-5 -23 -5 0 -10 14 -10 31 0 22 -12 46 -36 75 -19 24 -31 44 -27 44 5 0 22
-18 39 -40z m-2656 -60 c0 -6 -75 -10 -205 -10 -130 0 -205 4 -205 10 0 6 75
10 205 10 130 0 205 -4 205 -10z m3300 0 c0 -6 -75 -10 -205 -10 -130 0 -205
4 -205 10 0 6 75 10 205 10 130 0 205 -4 205 -10z m-2880 -415 l0 -235 123 0
c131 0 220 11 295 37 151 51 259 188 295 376 l12 57 97 0 97 0 -24 -70 c-37
-109 -74 -169 -151 -246 -51 -52 -91 -81 -145 -107 -137 -66 -162 -70 -496
-75 l-303 -4 0 251 0 251 100 0 100 0 0 -235z m2250 208 c21 -47 24 -143 6
-204 -56 -187 -266 -291 -586 -291 -150 1 -256 16 -428 63 l-112 31 6 67 c4
36 8 67 9 69 2 2 55 -24 118 -58 204 -108 343 -147 496 -137 107 6 183 34 246
89 61 53 85 105 85 183 0 69 -22 123 -70 178 l-32 37 124 0 125 0 13 -27z"/>
<path d="M1200 2525 l0 -65 45 0 c52 0 85 25 85 65 0 40 -33 65 -85 65 l-45 0
0 -65z"/>
</g>
</svg>
